<svg width="800" height="600" xmlns="http://www.w3.org/2000/svg">
 <!-- Created with Method Draw - http://github.com/duopixel/Method-Draw/ -->
 <g>
  <title>background</title>
  <rect fill="#fff" id="canvas_background" height="602" width="802" y="-1" x="-1"/>
  <g display="none" overflow="visible" y="0" x="0" height="100%" width="100%" id="canvasGrid">
   <rect fill="url(#gridpattern)" stroke-width="0" y="0" x="0" height="100%" width="100%"/>
  </g>
 </g>
 <g>
  <title>Layer 1</title>
  <path d="m332.5,153.5c0,0 0,-1 -1,-1c0,0 0,0 0,0c-1,-1 -2,-2 -4,-4c-2,-2 -4.63245,-5.47737 -11,-10c-4.75388,-3.3765 -10.08743,-5.79393 -15,-8c-4.07965,-1.83203 -8.07181,-3.69125 -13,-5c-3.05634,-0.81165 -15.75711,-5.98692 -22,-7c-5.92252,-0.96109 -12,-2 -19,-2c-6,0 -13.02264,-1.638 -22,-1c-7.05328,0.50126 -13.0966,0.53374 -19,2c-6.13806,1.52454 -11.13881,3.81116 -18,9c-5.10712,3.8623 -10.19409,9.88855 -13,15c-3.22804,5.88045 -6.66383,13.75139 -9,21c-2.82813,8.77505 -4.49963,16.97121 -5,30c-0.34538,8.99338 -0.57736,15.02385 0,22c0.50171,6.06204 2.2213,15.31856 5,21c3.16821,6.47784 6.77196,11.11955 10,17c2.80591,5.11145 7.22885,8.72961 12,13c4.21509,3.77267 12.91447,10.17755 19,13c6.90886,3.20432 14.894,6.48584 23,8c7.92519,1.48038 19.95332,3.49902 28,4c8.9826,0.55923 17,1 26,1c8,0 17.07483,-0.51962 25,-2c8.10602,-1.51416 20.69363,-4.73038 27,-9c5.85532,-3.96423 10.19919,-10.17697 14,-17c3.07782,-5.52515 6,-16 8,-23c2,-7 3.49902,-13.95332 4,-22c0.43497,-6.98648 -1,-13 -1,-18c0,-6 -1.3754,-15.11809 -3,-22c-1.45309,-6.15536 -3.90338,-11.01691 -5,-17c-0.91925,-5.01547 -3.04868,-12.28912 -5,-17c-1.37979,-3.3311 -4.41885,-6.41885 -6,-8c-1.58115,-1.58115 -1,-2 -2,-3c-1,-1 -2,-1 -2,-1c-1,0 -1,-1 -2,-1c-3,0 -5.87857,0.49345 -9,1c-3.94836,0.64073 -7.03873,-0.48055 -10,0c-3.12143,0.50655 -5.07611,0.61731 -6,1c-1.30655,0.5412 -2,1 -1,1c0,0 1.93414,-0.14429 4,-1c2.92157,-1.21014 7,-1 10,-1c2,0 5,0 7,0c1,0 4,0 6,0c1,0 2,0 3,0c1,0 2,1 3,1c1,0 2,0 2,0c1,1 2.4588,0.69344 3,2c0.38269,0.92387 1.14429,2.93414 2,5c1.21014,2.92157 2,7 2,9c0,2 0.48627,4.82375 1,7c0.68927,2.91975 0,5 0,8c0,4 0,6 0,8c0,2 0,4 0,5c0,1 -0.70709,1.29289 0,2c0.70709,0.70711 1,0 1,0c0,0 3.19891,-1.53236 6,-3c4.42889,-2.32053 8.21512,-4.36079 15,-7c2.08395,-0.81062 9.84464,-3.54692 16,-5c6.8819,-1.6246 12.98087,-2.12257 19,-3c7.97794,-1.16295 20.01352,-1.56503 27,-2c8.04669,-0.50096 16.01352,-1.56503 23,-2c8.04669,-0.50096 19.02725,-0.34015 27,-1c6.06204,-0.50171 13,-2 19,-2c4,0 8,-1 10,-1c2,0 2,0 2,1c0,0 0,1 0,1c0,0 0,1 0,1c0,4 -0.49756,7.9258 -1,13c-0.49268,4.97566 -1,11 -1,16c0,4 -1,7 -1,9c0,1 0,1 -1,2c0,0 0,0 -4,0c-5,0 -11.98828,-1.09882 -20,-2c-9.98691,-1.12335 -21,-2 -32,-2c-12,0 -22,-1 -36,-1c-10,0 -18,0 -24,0c-6,0 -10,0 -17,0c-5,0 -10,0 -14,0c-4,0 -7.15225,-0.76537 -9,0c-1.30655,0.5412 -2,1 -2,1l0,0" id="svg_7" stroke-opacity="null" stroke-width="1.5" stroke="#000" fill="#8CD79F"/>
  <path d="m521.5,156.5c0,0 0,-1 0,-1c0,-1 0,-4 0,-7c0,-3 0.1731,-7.85274 1,-9c1.30743,-1.814 2,-5 3,-7c1,-2 1.61066,-5.15928 3,-8c3.16821,-6.47784 6.38507,-10.37202 9,-14c2.48071,-3.44181 5.22272,-5.72399 9,-9c2.13672,-1.85319 6.79486,-7.22021 10,-10c3.77728,-3.27601 7.05664,-5.91753 10,-8c4.08173,-2.88786 7.07275,-4.8819 12,-8c3.04675,-1.92806 5.82373,-3.48626 8,-4c1.94647,-0.4595 4,0 6,0c3,0 7,0 10,0c3,0 7.02997,-0.48873 11,0c4.09222,0.50378 9.74811,2.56812 16,5c6.78485,2.63921 11.76306,5.38055 18,9c5.802,3.36703 10.28418,6.73115 15,12c4.27039,4.77115 9.40619,12.78304 13,20c3.39478,6.81729 4.48169,13.87997 6,21c1.47473,6.91557 2.49969,14.97325 3,29c0.28516,7.99492 -0.9187,16.0121 -2,23c-0.93018,6.01122 -2.73212,12.04353 -4,19c-1.65314,9.07013 -3.79395,14.08743 -6,19c-1.83203,4.07967 -5,8 -7,12c-2,4 -3.87744,9.15085 -10,14c-1.75287,1.38831 -5,5 -8,7c-3,2 -6.04132,3.84723 -10,5c-6.07233,1.76828 -10.04132,1.84723 -14,3c-3.03619,0.88412 -8,2 -12,2c-4,0 -8.04498,0.73309 -14,0c-4.09222,-0.50378 -9.0769,-1.73145 -13,-3c-5.12396,-1.65686 -7.88733,-3.37668 -14,-5c-4.92822,-1.30875 -10.1958,-2.64886 -14,-5c-4.25323,-2.62866 -8,-5 -11,-8c-3,-3 -5.73328,-6.23274 -11,-12c-2.86096,-3.13286 -5.71411,-6.21167 -8,-9c-2.68976,-3.28101 -4.34314,-5.87605 -6,-11c-1.26855,-3.92311 -2.11584,-8.96384 -3,-12c-1.15277,-3.95868 -2,-7 -2,-10c0,-3 0,-5 0,-8c0,-3 -0.48053,-6.03874 0,-9c0.50653,-3.12144 1,-5 1,-6l0,-1l1,-1l0,0" id="svg_8" stroke-opacity="null" stroke-width="1.5" stroke="#000" fill="#FFFF91"/>
  <path d="m672.5,113.5c0,0 2.21008,-3.85076 5,-8c3.2536,-4.83881 6.74286,-9.34457 12,-13c4.78741,-3.32879 10,-5 16,-6c6,-1 14.14221,0.36097 20,2c5.18597,1.45107 11,4 16,8c5,4 13,10 18,15c4,4 6.79395,8.08744 9,13c2.74805,6.11949 5.48169,12.87997 7,20c1.47473,6.91557 2.49622,16.90779 3,21c0.6109,4.96254 0,10 0,16c0,4 -1.49622,10.90779 -2,15c-0.48871,3.97003 -0.31073,8.08025 -1,11c-0.51373,2.17625 -1.48627,4.82375 -2,7c-0.68927,2.91975 0.76538,4.15224 0,6c-0.5412,1.30656 -1,2 -1,3c0,0 0,0 0,0c0,0 -1.87854,0.49345 -5,1c-3.94836,0.64073 -7.90778,-0.49623 -12,-1c-3.97003,-0.48874 -7,0 -7,0c0,0 -0.12219,-1.00749 0,-2c0.50378,-4.09221 1.36096,-10.14223 3,-16c1.45105,-5.18599 3.1391,-8.97418 4,-14c1.19385,-6.96956 2,-11 2,-16c0,-2 0.15277,-6.04132 -1,-10c-0.88416,-3.03616 -1.633,-6.19801 -5,-12c-1.80969,-3.11848 -5,-7 -7,-10c-2,-3 -3.94623,-6.05682 -5,-7c-4.77112,-4.27039 -10,-7 -12,-8c-2,-1 -5.96381,-1.11587 -9,-2c-3.95868,-1.15277 -6.93799,-1.49829 -13,-2c-1.99316,-0.16496 -7,0 -7,0c-2,1 -3.06598,0.87766 -5,2c-3.11847,1.80972 -4.1731,2.85274 -5,4c-1.30743,1.814 -1.29291,3.29289 -2,4c-0.70709,0.70711 0,2 0,2c0,0 0,0 -1,1c0,0 0,0 0,0c0,0 -1.15222,0.23463 -3,1c-1.30658,0.5412 -1.29291,1.29289 -2,2c-0.70709,0.70711 -1,0 -1,0l0,0" id="svg_10" stroke-opacity="null" stroke-width="1.5" stroke="#000" fill="#FFAC8D"/>
  <path d="m176.5,138.5c0,0 -1.53987,-3.25305 -5,-9c-4.43713,-7.36966 -11.33269,-15.72829 -20,-23c-9.3513,-7.84557 -21.18184,-16.64217 -36,-23c-9.59447,-4.11657 -22.95332,-4.49903 -31,-5c-6.98647,-0.43496 -13.47231,1.47231 -18,6c-4.52769,4.52769 -9.84322,11.72903 -13,23c-2.75043,9.82014 -3.49949,18.96599 -4,30c-0.40783,8.99075 0.51564,18.06711 2,27c1.51127,9.09483 5.06982,18.98878 6,25c1.08131,6.9879 2.50731,14.02434 3,19c0.50245,5.0742 1.49346,10.87856 2,14c0.32037,1.97418 -0.48055,6.03874 0,9c0.50654,3.12144 2.49755,6.9258 3,12c0.29562,2.9854 1,6 1,9c0,3 0.90146,7.00485 1,8c0.50245,5.07422 2,6 2,6c0,1 1.69255,2.186 3,4c0.8269,1.14728 2,2 4,3c2,1 3,1 5,1c2,0 5.04132,-0.84723 9,-2c3.03616,-0.88412 5,-2 6,-3c0,0 -0.22149,-0.81937 -1,-2c-2.96449,-4.49576 -3.36742,-10.1853 -6,-18c-2.43131,-7.21725 -7.88929,-15.03804 -10,-21c-2.85142,-8.05415 -5.49829,-16.93796 -6,-23c-0.49488,-5.97955 -1.65984,-12.02725 -1,-20c0.50171,-6.06204 1.46289,-12.15378 4,-20c1.65685,-5.12395 4,-9 6,-13c2,-4 4.55819,-8.51929 8,-11c3.62798,-2.6149 7.55819,-5.51929 11,-8c3.62798,-2.6149 7.90778,-3.49623 12,-4c3.97003,-0.48874 8.03746,0.38908 13,1c8.18443,1.00755 13.23401,3.49295 18,6c3.19099,1.67856 5.72398,5.22273 9,9c3.70638,4.2735 9.19028,8.88152 11,12c1.12234,1.93399 2,3 2,3l0,1" id="svg_11" stroke-opacity="null" stroke-width="1.5" stroke="#000" fill="#FFB27C"/>
 </g>
</svg>